<svg width="22" height="22" viewBox="0 0 22 22" fill="none" xmlns="http://www.w3.org/2000/svg">
<path d="M5.85453 14.2228C4.76724 12.7425 4.125 10.915 4.125 8.9375C4.125 4.00146 8.12645 0 13.0625 0C17.9985 0 22 4.00146 22 8.9375C22 13.8735 17.9985 17.875 13.0625 17.875C11.0844 17.875 9.25648 17.2324 7.77596 16.1446L7.77715 16.1455C7.7366 16.2005 7.69144 16.2531 7.64166 16.3029L2.34727 21.5973C1.8103 22.1342 0.939695 22.1342 0.402725 21.5973C-0.134246 21.0603 -0.134246 20.1897 0.402725 19.6527L5.69711 14.3583C5.74689 14.3086 5.79954 14.2634 5.85453 14.2228ZM5.5 8.9375C5.5 13.1142 8.88585 16.5 13.0625 16.5C17.2392 16.5 20.625 13.1142 20.625 8.9375C20.625 4.76085 17.2392 1.375 13.0625 1.375C8.88585 1.375 5.5 4.76085 5.5 8.9375Z" fill="black"/>
</svg>
